<?xml version="1.0" encoding="UTF-8"?>
<!-- 2016-08-12 10:39:02 Generated by QCAD SVG Exporter PG -->
<svg width="35.750000000000014in" height="23.93440851977458in" viewBox="-10.875000000000002 -3.1496749471250536 35.750000000000014 23.93440851977458" version="1.1" xmlns="http://www.w3.org/2000/svg" style="stroke-linecap:round;stroke-linejoin:round;fill:none" xmlns:sodipodi="http://sodipodi.sourceforge.net/DTD/sodipodi-0.dtd" xmlns:inkscape="http://www.inkscape.org/namespaces/inkscape">
    <sodipodi:namedview inkscape:document-units="in" unitToSymbol="in" units="in"/>
    <g transform="scale(1,-1)">
        <!-- Line -->
        <line x1="13.999999999999986" y1="-0.00007781014974028722" x2="13.749999999999972" y2="-0.00007781014974028722" style="stroke:#ff0000;stroke-width:0.00984251968503937;"/>
        <!-- Line -->
        <line x1="0" y1="0" x2="0.25" y2="-7.105427357601002e-15" style="stroke:#ff0000;stroke-width:0.00984251968503937;"/>
        <!-- Line -->
        <line x1="14" y1="-17.75007781014974" x2="12.999999999999957" y2="-17.75007781014974" style="stroke:#ff0000;stroke-width:0.00984251968503937;"/>
        <!-- Line -->
        <line x1="-2.7e-15" y1="-17.750000000000007" x2="0.9999999999999973" y2="-17.749999999999993" style="stroke:#ff0000;stroke-width:0.00984251968503937;"/>
        <!-- Circle -->
        <circle cx="21.5" cy="-5.250077810149726" r="0.125" style="stroke:#ff0000;stroke-width:0.00984251968503937;"/>
        <!-- Circle -->
        <circle cx="-7.500000000000002" cy="-5.250000000000021" r="0.125" style="stroke:#ff0000;stroke-width:0.00984251968503937;"/>
        <!-- Arc -->
        <path d="M14.25,-7.500077810149733 A0.1249999999999999,0.1249999999999999 0 0,0 14.5,-7.500077810149733" style="stroke:#ff0000;stroke-width:0.00984251968503937;"/>
        <!-- Arc -->
        <path d="M-0.2500000000000014,-7.500000000000028 A0.1249999999999999,0.1249999999999999 0 0,1 -0.5000000000000012,-7.500000000000028" style="stroke:#ff0000;stroke-width:0.00984251968503937;"/>
        <!-- Arc -->
        <path d="M14.124999999999986,-10.000077810149733 A0.125,0.125 0 0,0 14.374999999999986,-10.000077810149733" style="stroke:#ff0000;stroke-width:0.00984251968503937;"/>
        <!-- Arc -->
        <path d="M-0.1250000000000019,-10.000000000000021 A0.125,0.125 0 0,1 -0.3750000000000019,-10.000000000000021" style="stroke:#ff0000;stroke-width:0.00984251968503937;"/>
        <!-- Arc -->
        <path d="M13.375000000000014,-14.750077810149726 A0.125,0.125 0 0,0 13.625000000000014,-14.750077810149726" style="stroke:#ff0000;stroke-width:0.00984251968503937;"/>
        <!-- Arc -->
        <path d="M0.6249999999999978,-14.749999999999993 A0.125,0.125 0 0,1 0.3749999999999978,-14.749999999999993" style="stroke:#ff0000;stroke-width:0.00984251968503937;"/>
        <!-- Line -->
        <line x1="21.8125" y1="-6.00007781014974" x2="21.8125" y2="-4.500077810149726" style="stroke:#808000;stroke-width:0.08307086614173229;"/>
        <!-- Line -->
        <line x1="-7.812500000000002" y1="-6.0000000000000355" x2="-7.812500000000002" y2="-4.5" style="stroke:#808000;stroke-width:0.08307086614173229;"/>
        <!-- Hatch -->
        <!-- Hatch -->
        <path d="M0,0 L2.032922286466955,0" style="stroke:#00ffff;stroke-width:0.00984251968503937;"/>
        <!-- Block Reference: Horizontal top tape / entities: 5 -->
        <g>
            <!-- Line -->
            <line x1="15.562499999999972" y1="-0.7500778101497393" x2="11.937499999999972" y2="-0.7500778101497402" style="stroke:#00ffff;stroke-width:0.00984251968503937;"/>
            <!-- Line -->
            <line x1="11.937499999999972" y1="-0.7500778101497402" x2="11.937499999999972" y2="-0.00007781014974006525" style="stroke:#00ffff;stroke-width:0.00984251968503937;"/>
            <!-- Line -->
            <line x1="11.937499999999972" y1="-0.00007781014974006525" x2="15.562499999999972" y2="-0.00007781014974073116" style="stroke:#00ffff;stroke-width:0.00984251968503937;"/>
            <!-- Line -->
            <line x1="15.562499999999972" y1="-0.00007781014974073116" x2="15.562499999999972" y2="-0.7500778101497393" style="stroke:#00ffff;stroke-width:0.00984251968503937;"/>
            <!-- Hatch -->
            <g>
                <path d="M12.123267953293619,-0.00007781014974009936 L11.937499999999972,-0.18584576344338657" style="stroke:#00ffff;stroke-width:0.00984251968503937;"/>
                <path d="M12.347774356320354,-0.00007781014974014062 L11.937499999999973,-0.41035216647012096" style="stroke:#00ffff;stroke-width:0.00984251968503937;"/>
                <path d="M12.572280759347073,-0.00007781014974018186 L11.937499999999973,-0.6348585694968425" style="stroke:#00ffff;stroke-width:0.00984251968503937;"/>
                <path d="M12.796787162373803,-0.0000778101497402231 L12.046787162373803,-0.7500778101497401" style="stroke:#00ffff;stroke-width:0.00984251968503937;"/>
                <path d="M13.021293565400544,-0.00007781014974026434 L12.27129356540054,-0.75007781014974" style="stroke:#00ffff;stroke-width:0.00984251968503937;"/>
                <path d="M13.245799968427264,-0.00007781014974030558 L12.495799968427264,-0.75007781014974" style="stroke:#00ffff;stroke-width:0.00984251968503937;"/>
                <path d="M13.47030637145399,-0.00007781014974034682 L12.720306371453988,-0.75007781014974" style="stroke:#00ffff;stroke-width:0.00984251968503937;"/>
                <path d="M13.694812774480729,-0.00007781014974038806 L12.944812774480729,-0.7500778101497398" style="stroke:#00ffff;stroke-width:0.00984251968503937;"/>
                <path d="M13.919319177507447,-0.0000778101497404293 L13.169319177507447,-0.7500778101497398" style="stroke:#00ffff;stroke-width:0.00984251968503937;"/>
                <path d="M14.143825580534179,-0.00007781014974047054 L13.393825580534179,-0.7500778101497397" style="stroke:#00ffff;stroke-width:0.00984251968503937;"/>
                <path d="M14.368331983560916,-0.0000778101497405118 L13.618331983560912,-0.7500778101497396" style="stroke:#00ffff;stroke-width:0.00984251968503937;"/>
                <path d="M14.592838386587633,-0.00007781014974055303 L13.842838386587633,-0.7500778101497396" style="stroke:#00ffff;stroke-width:0.00984251968503937;"/>
                <path d="M14.817344789614365,-0.00007781014974059428 L14.067344789614365,-0.7500778101497395" style="stroke:#00ffff;stroke-width:0.00984251968503937;"/>
                <path d="M15.041851192641104,-0.00007781014974063552 L14.291851192641104,-0.7500778101497395" style="stroke:#00ffff;stroke-width:0.00984251968503937;"/>
                <path d="M15.26635759566782,-0.00007781014974067674 L14.51635759566782,-0.7500778101497395" style="stroke:#00ffff;stroke-width:0.00984251968503937;"/>
                <path d="M15.490863998694552,-0.00007781014974071798 L14.74086399869455,-0.7500778101497394" style="stroke:#00ffff;stroke-width:0.00984251968503937;"/>
                <path d="M15.56249999999997,-0.1529482118710594 L14.965370401721291,-0.7500778101497394" style="stroke:#00ffff;stroke-width:0.00984251968503937;"/>
                <path d="M15.56249999999997,-0.3774546148977805 L15.189876804748012,-0.7500778101497393" style="stroke:#00ffff;stroke-width:0.00984251968503937;"/>
                <path d="M15.562499999999972,-0.6019610179245067 L15.414383207774739,-0.7500778101497392" style="stroke:#00ffff;stroke-width:0.00984251968503937;"/>
            </g>
        </g>
        <!-- Block Reference: Horizontal top tape / entities: 5 -->
        <g>
            <!-- Line -->
            <line x1="-1.5625" y1="-0.7500000000000071" x2="2.0625" y2="-0.7500000000000071" style="stroke:#00ffff;stroke-width:0.00984251968503937;"/>
            <!-- Line -->
            <line x1="2.0625" y1="-0.7500000000000071" x2="2.0625" y2="-7.105427357601002e-15" style="stroke:#00ffff;stroke-width:0.00984251968503937;"/>
            <!-- Line -->
            <line x1="2.0625" y1="-7.105427357601002e-15" x2="-1.5625" y2="-7.105427357601002e-15" style="stroke:#00ffff;stroke-width:0.00984251968503937;"/>
            <!-- Line -->
            <line x1="-1.5625" y1="-7.105427357601002e-15" x2="-1.5625" y2="-0.7500000000000071" style="stroke:#00ffff;stroke-width:0.00984251968503937;"/>
            <!-- Hatch -->
            <g>
                <path d="M1.9440768363207392,-0.7500000000000071 L2.0625,-0.631576836320746" style="stroke:#00ffff;stroke-width:0.00984251968503937;"/>
                <path d="M1.7195704332940105,-0.7500000000000072 L2.0625,-0.40707043329401754" style="stroke:#00ffff;stroke-width:0.00984251968503937;"/>
                <path d="M1.4950640302672815,-0.7500000000000071 L2.0625,-0.1825640302672887" style="stroke:#00ffff;stroke-width:0.00984251968503937;"/>
                <path d="M1.2705576272405523,-0.7500000000000071 L2.0205576272405525,-7.105427357601002e-15" style="stroke:#00ffff;stroke-width:0.00984251968503937;"/>
                <path d="M1.0460512242138233,-0.7500000000000071 L1.7960512242138233,-7.105427357601002e-15" style="stroke:#00ffff;stroke-width:0.00984251968503937;"/>
                <path d="M0.8215448211870944,-0.7500000000000071 L1.5715448211870944,-7.105427357601002e-15" style="stroke:#00ffff;stroke-width:0.00984251968503937;"/>
                <path d="M0.5970384181603655,-0.7500000000000071 L1.3470384181603656,-7.105427357601002e-15" style="stroke:#00ffff;stroke-width:0.00984251968503937;"/>
                <path d="M0.37253201513363693,-0.7500000000000071 L1.1225320151336369,-7.105427357601002e-15" style="stroke:#00ffff;stroke-width:0.00984251968503937;"/>
                <path d="M0.14802561210690812,-0.7500000000000071 L0.8980256121069081,-7.105427357601002e-15" style="stroke:#00ffff;stroke-width:0.00984251968503937;"/>
                <path d="M-0.07648079091982068,-0.7500000000000071 L0.6735192090801794,-7.105427357601002e-15" style="stroke:#00ffff;stroke-width:0.00984251968503937;"/>
                <path d="M-0.30098719394654966,-0.7500000000000071 L0.44901280605345034,-7.105427357601002e-15" style="stroke:#00ffff;stroke-width:0.00984251968503937;"/>
                <path d="M-0.5254935969732787,-0.7500000000000071 L0.22450640302672134,-7.105427357601002e-15" style="stroke:#00ffff;stroke-width:0.00984251968503937;"/>
                <path d="M-0.7500000000000074,-0.7500000000000071 L-7.428401328401047e-15,-7.105427357601002e-15" style="stroke:#00ffff;stroke-width:0.00984251968503937;"/>
                <path d="M-0.9745064030267363,-0.7500000000000071 L-0.22450640302673622,-7.105427357601002e-15" style="stroke:#00ffff;stroke-width:0.00984251968503937;"/>
                <path d="M-1.199012806053465,-0.7500000000000071 L-0.449012806053465,-7.105427357601002e-15" style="stroke:#00ffff;stroke-width:0.00984251968503937;"/>
                <path d="M-1.423519209080194,-0.7500000000000071 L-0.6735192090801938,-7.105427357601002e-15" style="stroke:#00ffff;stroke-width:0.00984251968503937;"/>
                <path d="M-1.5625,-0.6644743878930848 L-0.898025612106922,-7.105427357601002e-15" style="stroke:#00ffff;stroke-width:0.00984251968503937;"/>
                <path d="M-1.5625,-0.4399679848663554 L-1.1225320151336515,-7.105427357601002e-15" style="stroke:#00ffff;stroke-width:0.00984251968503937;"/>
                <path d="M-1.5625,-0.21546158183962716 L-1.34703841816038,-7.105427357601002e-15" style="stroke:#00ffff;stroke-width:0.00984251968503937;"/>
            </g>
        </g>
        <!-- Block Reference: Spar / entities: 4 -->
        <g>
            <!-- Line -->
            <line x1="12.999999999999964" y1="-17.75007781014974" x2="13.499999999999968" y2="-14.75007781014974" style="stroke:#808000;stroke-width:0.08307086614173229;"/>
            <!-- Line -->
            <line x1="13.499999999999968" y1="-14.75007781014974" x2="14.249999999999968" y2="-10.00007781014974" style="stroke:#808000;stroke-width:0.08307086614173229;stroke-dasharray:0,0.24921259842519686;stroke-dashoffset:0.21230927575564884"/>
            <!-- Line -->
            <line x1="14.249999999999968" y1="-10.00007781014974" x2="14.37499999999997" y2="-7.50007781014974" style="stroke:#808000;stroke-width:0.08307086614173229;"/>
            <!-- Line -->
            <line x1="14.37499999999997" y1="-7.50007781014974" x2="13.749999999999972" y2="-0.00007781014974028722" style="stroke:#808000;stroke-width:0.08307086614173229;stroke-dasharray:0,0.24921259842519686;stroke-dashoffset:0.2244032689305575"/>
        </g>
        <!-- Block Reference: Spar / entities: 4 -->
        <g>
            <!-- Line -->
            <line x1="0.9999999999999973" y1="-17.750000000000007" x2="0.4999999999999978" y2="-14.750000000000007" style="stroke:#808000;stroke-width:0.08307086614173229;"/>
            <!-- Line -->
            <line x1="0.4999999999999978" y1="-14.750000000000007" x2="-0.25000000000000183" y2="-10.000000000000007" style="stroke:#808000;stroke-width:0.08307086614173229;stroke-dasharray:0,0.24921259842519686;stroke-dashoffset:0.21230927575564884"/>
            <!-- Line -->
            <line x1="-0.25000000000000183" y1="-10.000000000000007" x2="-0.3750000000000014" y2="-7.500000000000007" style="stroke:#808000;stroke-width:0.08307086614173229;"/>
            <!-- Line -->
            <line x1="-0.3750000000000014" y1="-7.500000000000007" x2="0.25" y2="-7.105427357601002e-15" style="stroke:#808000;stroke-width:0.08307086614173229;stroke-dasharray:0,0.24921259842519686;stroke-dashoffset:0.2244032689305575"/>
        </g>
        <!-- Block Reference: Spar reference lines / entities: 6 -->
        <g/>
        <!-- Block Reference: Main Sheet half / entities: 5 -->
        <g>
            <!-- Line -->
            <line x1="14" y1="0" x2="7" y2="8.572527594031472e-16" style="stroke:#ff0000;stroke-width:0.00984251968503937;"/>
            <!-- Line -->
            <line x1="21.75" y1="-4.75" x2="14" y2="0" style="stroke:#ff0000;stroke-width:0.00984251968503937;"/>
            <!-- Line -->
            <line x1="21.750000000000004" y1="-4.750000000000001" x2="21.75" y2="-5.750000000000001" style="stroke:#ff0000;stroke-width:0.00984251968503937;"/>
            <!-- Line -->
            <line x1="21.75" y1="-5.750000000000001" x2="13.999999999999996" y2="-17.75" style="stroke:#ff0000;stroke-width:0.00984251968503937;"/>
            <!-- Line -->
            <line x1="13.999999999999996" y1="-17.75" x2="6.999999999999991" y2="-17.749999999999996" style="stroke:#ff0000;stroke-width:0.00984251968503937;"/>
        </g>
        <!-- Block Reference: Main Sheet half / entities: 5 -->
        <g>
            <!-- Line -->
            <line x1="1.1835910099516058e-20" y1="0.00007781014969765465" x2="7" y2="0.00007781014969765465" style="stroke:#ff0000;stroke-width:0.00984251968503937;"/>
            <!-- Line -->
            <line x1="-7.750000000000001" y1="-4.7499221898503015" x2="1.1835910099516058e-20" y2="0.00007781014969765465" style="stroke:#ff0000;stroke-width:0.00984251968503937;"/>
            <!-- Line -->
            <line x1="-7.750000000000002" y1="-4.7499221898503015" x2="-7.750000000000002" y2="-5.7499221898503015" style="stroke:#ff0000;stroke-width:0.00984251968503937;"/>
            <!-- Line -->
            <line x1="-7.750000000000002" y1="-5.7499221898503015" x2="-3.5999881640899005e-15" y2="-17.749922189850302" style="stroke:#ff0000;stroke-width:0.00984251968503937;"/>
            <!-- Line -->
            <line x1="-2.2204342133402135e-15" y1="-17.749922189850302" x2="6.999999999999999" y2="-17.749922189850302" style="stroke:#ff0000;stroke-width:0.00984251968503937;"/>
        </g>
        <!-- Circle -->
        <circle cx="12.999999999999972" cy="-17.000077810149726" r="0.01565" style="stroke:#ff0000;stroke-width:0.00984251968503937;"/>
        <!-- Circle -->
        <circle cx="13.249999999999986" cy="-17.00007781014974" r="0.01565" style="stroke:#ff0000;stroke-width:0.00984251968503937;"/>
        <!-- Circle -->
        <circle cx="0.9999999999999979" cy="-16.999999999999993" r="0.01565" style="stroke:#ff0000;stroke-width:0.00984251968503937;"/>
        <!-- Circle -->
        <circle cx="0.7499999999999972" cy="-16.999999999999986" r="0.01565" style="stroke:#ff0000;stroke-width:0.00984251968503937;"/>
        <!-- Block Reference: bridle reference / entities: 6 -->
        <g/>
        <!-- Block Reference: tail bridle reference / entities: 4 -->
        <g/>
        <!-- Block Reference: vertical top tape / entities: 5 -->
        <g>
            <!-- Line -->
            <line x1="14.308772480944006" y1="-2.0842303299145986" x2="13.5616264573752" y2="-2.1495971369753426" style="stroke:#00ffff;stroke-width:0.00984251968503937;"/>
            <!-- Line -->
            <line x1="13.5616264573752" y1="-2.1495971369753426" x2="13.191214550697651" y2="2.084230329914577" style="stroke:#00ffff;stroke-width:0.00984251968503937;"/>
            <!-- Line -->
            <line x1="13.191214550697651" y1="2.084230329914577" x2="13.93836057426646" y2="2.1495971369753195" style="stroke:#00ffff;stroke-width:0.00984251968503937;"/>
            <!-- Line -->
            <line x1="13.93836057426646" y1="2.1495971369753195" x2="14.308772480944006" y2="-2.0842303299145986" style="stroke:#00ffff;stroke-width:0.00984251968503937;"/>
            <!-- Hatch -->
            <g>
                <path d="M13.320896151159308,2.09557599982287 L13.20073469813316,1.9754145467967184" style="stroke:#00ffff;stroke-width:0.00984251968503937;"/>
                <path d="M13.56692750885643,2.1171009544932593 L13.218796279658191,1.7689697252950218" style="stroke:#00ffff;stroke-width:0.00984251968503937;"/>
                <path d="M13.81295886655356,2.1386259091636495 L13.236857861183225,1.562524903793313" style="stroke:#00ffff;stroke-width:0.00984251968503937;"/>
                <path d="M13.947216202581158,2.048376842164527 L13.254919442708255,1.3560800822916257" style="stroke:#00ffff;stroke-width:0.00984251968503937;"/>
                <path d="M13.965277784106187,1.8419320206628274 L13.272981024233285,1.1496352607899267" style="stroke:#00ffff;stroke-width:0.00984251968503937;"/>
                <path d="M13.98333936563122,1.6354871991611228 L13.291042605758319,0.943190439288223" style="stroke:#00ffff;stroke-width:0.00984251968503937;"/>
                <path d="M14.00140094715625,1.4290423776594343 L13.309104187283348,0.7367456177865329" style="stroke:#00ffff;stroke-width:0.00984251968503937;"/>
                <path d="M14.019462528681283,1.2225975561577382 L13.327165768808381,0.530300796284837" style="stroke:#00ffff;stroke-width:0.00984251968503937;"/>
                <path d="M14.037524110206315,1.0161527346560304 L13.345227350333413,0.3238559747831311" style="stroke:#00ffff;stroke-width:0.00984251968503937;"/>
                <path d="M14.055585691731345,0.8097079131543422 L13.363288931858444,0.11741115328144103" style="stroke:#00ffff;stroke-width:0.00984251968503937;"/>
                <path d="M14.073647273256377,0.6032630916526461 L13.381350513383476,-0.08903366822025692" style="stroke:#00ffff;stroke-width:0.00984251968503937;"/>
                <path d="M14.091708854781409,0.3968182701509382 L13.399412094908508,-0.29547848972196283" style="stroke:#00ffff;stroke-width:0.00984251968503937;"/>
                <path d="M14.109770436306441,0.19037344864925193 L13.417473676433536,-0.5019233112236489" style="stroke:#00ffff;stroke-width:0.00984251968503937;"/>
                <path d="M14.127832017831471,-0.016071372852446156 L13.43553525795857,-0.7083681327253488" style="stroke:#00ffff;stroke-width:0.00984251968503937;"/>
                <path d="M14.145893599356503,-0.22251619435415415 L13.453596839483602,-0.9148129542270548" style="stroke:#00ffff;stroke-width:0.00984251968503937;"/>
                <path d="M14.163955180881535,-0.42896101585584034 L13.471658421008632,-1.1212577757287407" style="stroke:#00ffff;stroke-width:0.00984251968503937;"/>
                <path d="M14.182016762406565,-0.6354058373575384 L13.489720002533664,-1.3277025972304406" style="stroke:#00ffff;stroke-width:0.00984251968503937;"/>
                <path d="M14.200078343931597,-0.8418506588592485 L13.507781584058696,-1.5341474187321487" style="stroke:#00ffff;stroke-width:0.00984251968503937;"/>
                <path d="M14.218139925456628,-1.0482954803609326 L13.525843165583726,-1.7405922402338325" style="stroke:#00ffff;stroke-width:0.00984251968503937;"/>
                <path d="M14.236201506981658,-1.2547403018626295 L13.543904747108758,-1.9470370617355306" style="stroke:#00ffff;stroke-width:0.00984251968503937;"/>
                <path d="M14.254263088506688,-1.4611851233643371 L13.566256117689129,-2.1491920941818976" style="stroke:#00ffff;stroke-width:0.00984251968503937;"/>
                <path d="M14.272324670031722,-1.6676299448660292 L13.81228747538624,-2.127667139511509" style="stroke:#00ffff;stroke-width:0.00984251968503937;"/>
                <path d="M14.290386251556752,-1.8740747663677242 L14.058318833083359,-2.106142184841119" style="stroke:#00ffff;stroke-width:0.00984251968503937;"/>
                <path d="M14.308447833081784,-2.0805195878694223 L14.304350190780477,-2.0846172301707293" style="stroke:#00ffff;stroke-width:0.00984251968503937;"/>
            </g>
        </g>
        <!-- Block Reference: vertical top tape / entities: 5 -->
        <g>
            <!-- Line -->
            <line x1="-0.3087724809440359" y1="-2.084152519764865" x2="0.4383735426247718" y2="-2.1495193268256094" style="stroke:#00ffff;stroke-width:0.00984251968503937;"/>
            <!-- Line -->
            <line x1="0.4383735426247718" y1="-2.1495193268256094" x2="0.8087854493023221" y2="2.0843081400643095" style="stroke:#00ffff;stroke-width:0.00984251968503937;"/>
            <!-- Line -->
            <line x1="0.8087854493023221" y1="2.0843081400643095" x2="0.06163942573351236" y2="2.149674947125053" style="stroke:#00ffff;stroke-width:0.00984251968503937;"/>
            <!-- Line -->
            <line x1="0.06163942573351236" y1="2.149674947125053" x2="-0.3087724809440359" y2="-2.084152519764865" style="stroke:#00ffff;stroke-width:0.00984251968503937;"/>
            <!-- Hatch -->
            <g>
                <path d="M0.3295701682771886,-2.1400002650168286 L0.44971791873351297,-2.0198525145605046" style="stroke:#00ffff;stroke-width:0.00984251968503937;"/>
                <path d="M0.12312534677549214,-2.121938683491797 L0.4712428734039025,-1.7738211568633864" style="stroke:#00ffff;stroke-width:0.00984251968503937;"/>
                <path d="M-0.08331947472620589,-2.103877101966765 L0.4927678280742921,-1.527789799166267" style="stroke:#00ffff;stroke-width:0.00984251968503937;"/>
                <path d="M-0.2897642962279026,-2.085815520441733 L0.5142927827446816,-1.2817584414691487" style="stroke:#00ffff;stroke-width:0.00984251968503937;"/>
                <path d="M-0.28922941330479096,-1.8607742344918927 L0.5358177374150712,-1.0357270837720303" style="stroke:#00ffff;stroke-width:0.00984251968503937;"/>
                <path d="M-0.2677044586344014,-1.6147428767947738 L0.557342692085461,-0.7896957260749116" style="stroke:#00ffff;stroke-width:0.00984251968503937;"/>
                <path d="M-0.2461795039640119,-1.3687115190976555 L0.5788676467558506,-0.5436643683777931" style="stroke:#00ffff;stroke-width:0.00984251968503937;"/>
                <path d="M-0.2246545492936224,-1.1226801614005375 L0.6003926014262402,-0.2976330106806749" style="stroke:#00ffff;stroke-width:0.00984251968503937;"/>
                <path d="M-0.2031295946232329,-0.8766488037034194 L0.6219175560966298,-0.051601652983556436" style="stroke:#00ffff;stroke-width:0.00984251968503937;"/>
                <path d="M-0.18160463995284343,-0.630617446006301 L0.6434425107670194,0.19442970471356188" style="stroke:#00ffff;stroke-width:0.00984251968503937;"/>
                <path d="M-0.16007968528245392,-0.3845860883091829 L0.664967465437409,0.4404610624106801" style="stroke:#00ffff;stroke-width:0.00984251968503937;"/>
                <path d="M-0.13855473061206441,-0.13855473061206441 L0.6864924201077987,0.6864924201077987" style="stroke:#00ffff;stroke-width:0.00984251968503937;"/>
                <path d="M-0.11702977594167491,0.10747662708505401 L0.7080173747781883,0.9325237778049172" style="stroke:#00ffff;stroke-width:0.00984251968503937;"/>
                <path d="M-0.09550482127128541,0.35350798478217227 L0.729542329448578,1.1785551355020356" style="stroke:#00ffff;stroke-width:0.00984251968503937;"/>
                <path d="M-0.07397986660089592,0.5995393424792905 L0.7510672841189675,1.4245864931991539" style="stroke:#00ffff;stroke-width:0.00984251968503937;"/>
                <path d="M-0.0524549119305064,0.8455707001764091 L0.7725922387893572,1.6706178508962728" style="stroke:#00ffff;stroke-width:0.00984251968503937;"/>
                <path d="M-0.030929957260116926,1.091602057873527 L0.7941171934597469,1.9166492085933908" style="stroke:#00ffff;stroke-width:0.00984251968503937;"/>
                <path d="M-0.009405002589727395,1.3376334155706462 L0.7430231753614489,2.0900615935218223" style="stroke:#00ffff;stroke-width:0.00984251968503937;"/>
                <path d="M0.012119952080662114,1.583664773267764 L0.5365783538597515,2.1081231750468534" style="stroke:#00ffff;stroke-width:0.00984251968503937;"/>
                <path d="M0.03364490675105155,1.8296961309648816 L0.3301335323580549,2.1261847565718854" style="stroke:#00ffff;stroke-width:0.00984251968503937;"/>
                <path d="M0.05516986142144107,2.0757274886620007 L0.12368871085635699,2.1442463380969166" style="stroke:#00ffff;stroke-width:0.00984251968503937;"/>
            </g>
        </g>
        <!-- Block Reference: bottom tape / entities: 5 -->
        <g>
            <!-- Line -->
            <line x1="13.022019520403964" y1="-19.784733572649525" x2="12.283413705644808" y2="-19.65449743939933" style="stroke:#00ffff;stroke-width:0.00984251968503937;"/>
            <!-- Line -->
            <line x1="12.283413705644808" y1="-19.65449743939933" x2="12.978006416312528" y2="-15.715266427350496" style="stroke:#00ffff;stroke-width:0.00984251968503937;"/>
            <!-- Line -->
            <line x1="12.978006416312528" y1="-15.715266427350496" x2="13.716612231071686" y2="-15.845502560600693" style="stroke:#00ffff;stroke-width:0.00984251968503937;"/>
            <!-- Line -->
            <line x1="13.716612231071686" y1="-15.845502560600693" x2="13.022019520403964" y2="-19.784733572649525" style="stroke:#00ffff;stroke-width:0.00984251968503937;"/>
            <!-- Hatch -->
            <g>
                <path d="M13.015025667313676,-15.721793920107615 L12.968684190542419,-15.768135396878876" style="stroke:#00ffff;stroke-width:0.00984251968503937;"/>
                <path d="M13.205879406714873,-15.755446583733152 L12.920623206064052,-16.040702784383967" style="stroke:#00ffff;stroke-width:0.00984251968503937;"/>
                <path d="M13.396733146116064,-15.789099247358685 L12.872562221585687,-16.313270171889055" style="stroke:#00ffff;stroke-width:0.00984251968503937;"/>
                <path d="M13.587586885517263,-15.822751910984216 L12.824501237107317,-16.585837559394164" style="stroke:#00ffff;stroke-width:0.00984251968503937;"/>
                <path d="M13.701042541495182,-15.93380265803303 L12.776440252628952,-16.858404946899256" style="stroke:#00ffff;stroke-width:0.00984251968503937;"/>
                <path d="M13.652981557016814,-16.206370045538122 L12.728379268150583,-17.13097233440435" style="stroke:#00ffff;stroke-width:0.00984251968503937;"/>
                <path d="M13.604920572538443,-16.478937433043225 L12.680318283672216,-17.403539721909453" style="stroke:#00ffff;stroke-width:0.00984251968503937;"/>
                <path d="M13.556859588060076,-16.751504820548323 L12.63225729919385,-17.67610710941455" style="stroke:#00ffff;stroke-width:0.00984251968503937;"/>
                <path d="M13.508798603581711,-17.02407220805341 L12.58419631471548,-17.94867449691964" style="stroke:#00ffff;stroke-width:0.00984251968503937;"/>
                <path d="M13.46073761910334,-17.29663959555851 L12.536135330237114,-18.22124188442474" style="stroke:#00ffff;stroke-width:0.00984251968503937;"/>
                <path d="M13.412676634624972,-17.5692069830636 L12.488074345758747,-18.493809271929827" style="stroke:#00ffff;stroke-width:0.00984251968503937;"/>
                <path d="M13.364615650146606,-17.84177437056871 L12.440013361280377,-18.76637665943494" style="stroke:#00ffff;stroke-width:0.00984251968503937;"/>
                <path d="M13.316554665668237,-18.114341758073813 L12.391952376802008,-19.03894404694004" style="stroke:#00ffff;stroke-width:0.00984251968503937;"/>
                <path d="M13.26849368118987,-18.3869091455789 L12.34389139232364,-19.311511434445126" style="stroke:#00ffff;stroke-width:0.00984251968503937;"/>
                <path d="M13.2204326967115,-18.659476533083996 L12.295830407845276,-19.58407882195022" style="stroke:#00ffff;stroke-width:0.00984251968503937;"/>
                <path d="M13.172371712233135,-18.932043920589084 L12.424959798277822,-19.67945583454439" style="stroke:#00ffff;stroke-width:0.00984251968503937;"/>
                <path d="M13.124310727754764,-19.20461130809418 L12.61581353767902,-19.713108498169927" style="stroke:#00ffff;stroke-width:0.00984251968503937;"/>
                <path d="M13.076249743276398,-19.477178695599285 L12.80666727708022,-19.746761161795458" style="stroke:#00ffff;stroke-width:0.00984251968503937;"/>
                <path d="M13.02818875879803,-19.74974608310437 L12.997521016481409,-19.78041382542099" style="stroke:#00ffff;stroke-width:0.00984251968503937;"/>
            </g>
        </g>
        <!-- Block Reference: bottom tape / entities: 5 -->
        <g>
            <!-- Line -->
            <line x1="0.9779804795959911" y1="-19.784655762499778" x2="1.7165862943551469" y2="-19.65441962924958" style="stroke:#00ffff;stroke-width:0.00984251968503937;"/>
            <!-- Line -->
            <line x1="1.7165862943551469" y1="-19.65441962924958" x2="1.0219935836874263" y2="-15.715188617200749" style="stroke:#00ffff;stroke-width:0.00984251968503937;"/>
            <!-- Line -->
            <line x1="1.0219935836874263" y1="-15.715188617200749" x2="0.28338776892827056" y2="-15.845424750450945" style="stroke:#00ffff;stroke-width:0.00984251968503937;"/>
            <!-- Line -->
            <line x1="0.28338776892827056" y1="-15.845424750450945" x2="0.9779804795959911" y2="-19.784655762499778" style="stroke:#00ffff;stroke-width:0.00984251968503937;"/>
            <!-- Hatch -->
            <g>
                <path d="M1.6645053896019721,-19.663602897937274 L1.710156100394619,-19.617952187144624" style="stroke:#00ffff;stroke-width:0.00984251968503937;"/>
                <path d="M1.391938002096874,-19.711663882415642 L1.6765034367690854,-19.42709844774343" style="stroke:#00ffff;stroke-width:0.00984251968503937;"/>
                <path d="M1.1193706145917766,-19.75972486689401 L1.642850773143552,-19.23624470834223" style="stroke:#00ffff;stroke-width:0.00984251968503937;"/>
                <path d="M0.9617846170079369,-19.692804461451118 L1.6091981095180197,-19.045390968941035" style="stroke:#00ffff;stroke-width:0.00984251968503937;"/>
                <path d="M0.9281319533824032,-19.501950722049923 L1.5755454458924862,-18.854537229539837" style="stroke:#00ffff;stroke-width:0.00984251968503937;"/>
                <path d="M0.89447928975687,-19.311096982648724 L1.541892782266953,-18.663683490138638" style="stroke:#00ffff;stroke-width:0.00984251968503937;"/>
                <path d="M0.8608266261313372,-19.12024324324753 L1.50824011864142,-18.472829750737446" style="stroke:#00ffff;stroke-width:0.00984251968503937;"/>
                <path d="M0.8271739625058051,-18.92938950384634 L1.474587455015888,-18.281976011336255" style="stroke:#00ffff;stroke-width:0.00984251968503937;"/>
                <path d="M0.7935212988802711,-18.73853576444514 L1.4409347913903539,-18.091122271935053" style="stroke:#00ffff;stroke-width:0.00984251968503937;"/>
                <path d="M0.7598686352547381,-18.547682025043944 L1.4072821277648209,-17.90026853253386" style="stroke:#00ffff;stroke-width:0.00984251968503937;"/>
                <path d="M0.7262159716292059,-18.356828285642752 L1.3736294641392888,-17.70941479313267" style="stroke:#00ffff;stroke-width:0.00984251968503937;"/>
                <path d="M0.6925633080036725,-18.16597454624155 L1.3399768005137553,-17.51856105373147" style="stroke:#00ffff;stroke-width:0.00984251968503937;"/>
                <path d="M0.6589106443781385,-17.975120806840348 L1.3063241368882212,-17.32770731433027" style="stroke:#00ffff;stroke-width:0.00984251968503937;"/>
                <path d="M0.6252579807526064,-17.78426706743916 L1.2726714732626891,-17.136853574929077" style="stroke:#00ffff;stroke-width:0.00984251968503937;"/>
                <path d="M0.5916053171270738,-17.593413328037965 L1.2390188096371566,-16.945999835527882" style="stroke:#00ffff;stroke-width:0.00984251968503937;"/>
                <path d="M0.5579526535015403,-17.402559588636766 L1.2053661460116232,-16.755146096126687" style="stroke:#00ffff;stroke-width:0.00984251968503937;"/>
                <path d="M0.5242999898760073,-17.21170584923557 L1.1717134823860902,-16.56429235672549" style="stroke:#00ffff;stroke-width:0.00984251968503937;"/>
                <path d="M0.4906473262504742,-17.02085210983438 L1.138060818760557,-16.373438617324293" style="stroke:#00ffff;stroke-width:0.00984251968503937;"/>
                <path d="M0.4569946626249409,-16.829998370433177 L1.104408155135024,-16.182584877923095" style="stroke:#00ffff;stroke-width:0.00984251968503937;"/>
                <path d="M0.4233419989994078,-16.639144631031982 L1.070755491509491,-15.991731138521901" style="stroke:#00ffff;stroke-width:0.00984251968503937;"/>
                <path d="M0.38968933537387485,-16.448290891630787 L1.037102827883958,-15.800877399120703" style="stroke:#00ffff;stroke-width:0.00984251968503937;"/>
                <path d="M0.3560366717483423,-16.257437152229596 L0.871802459281477,-15.741671364696462" style="stroke:#00ffff;stroke-width:0.00984251968503937;"/>
                <path d="M0.3223840081228088,-16.066583412828397 L0.5992350717763768,-15.789732349174828" style="stroke:#00ffff;stroke-width:0.00984251968503937;"/>
                <path d="M0.2887313444972762,-15.875729673427202 L0.32666768427128234,-15.837793333653195" style="stroke:#00ffff;stroke-width:0.00984251968503937;"/>
            </g>
        </g>
        <!-- Block Reference: clear tape / entities: 5 -->
        <g>
            <!-- Line -->
            <line x1="23.875000000000014" y1="-6.000077810149726" x2="18.875000000000014" y2="-6.000077810149724" style="stroke:#c0c0c0;stroke-width:0.00984251968503937;"/>
            <!-- Line -->
            <line x1="18.875000000000014" y1="-6.000077810149724" x2="18.875000000000014" y2="-4.500077810149728" style="stroke:#c0c0c0;stroke-width:0.00984251968503937;"/>
            <!-- Line -->
            <line x1="18.875000000000014" y1="-4.500077810149728" x2="23.875000000000014" y2="-4.500077810149727" style="stroke:#c0c0c0;stroke-width:0.00984251968503937;"/>
            <!-- Line -->
            <line x1="23.875000000000014" y1="-4.500077810149727" x2="23.875000000000014" y2="-6.000077810149726" style="stroke:#c0c0c0;stroke-width:0.00984251968503937;"/>
            <!-- Hatch -->
            <g>
                <path d="M19.0730945076568,-4.500077810149728 L18.875000000000014,-4.698172317806514" style="stroke:#c0c0c0;stroke-width:0.00984251968503937;"/>
                <path d="M19.297600910683524,-4.500077810149728 L18.875000000000014,-4.922678720833239" style="stroke:#c0c0c0;stroke-width:0.00984251968503937;"/>
                <path d="M19.522107313710258,-4.500077810149727 L18.875000000000014,-5.147185123859976" style="stroke:#c0c0c0;stroke-width:0.00984251968503937;"/>
                <path d="M19.746613716736984,-4.500077810149728 L18.875000000000014,-5.3716915268867" style="stroke:#c0c0c0;stroke-width:0.00984251968503937;"/>
                <path d="M19.971120119763718,-4.500077810149728 L18.87500000000001,-5.596197929913429" style="stroke:#c0c0c0;stroke-width:0.00984251968503937;"/>
                <path d="M20.19562652279046,-4.500077810149728 L18.875000000000014,-5.8207043329401635" style="stroke:#c0c0c0;stroke-width:0.00984251968503937;"/>
                <path d="M20.42013292581718,-4.500077810149728 L18.92013292581718,-6.000077810149723" style="stroke:#c0c0c0;stroke-width:0.00984251968503937;"/>
                <path d="M20.64463932884391,-4.500077810149727 L19.14463932884391,-6.000077810149723" style="stroke:#c0c0c0;stroke-width:0.00984251968503937;"/>
                <path d="M20.869145731870635,-4.500077810149727 L19.369145731870635,-6.000077810149723" style="stroke:#c0c0c0;stroke-width:0.00984251968503937;"/>
                <path d="M21.093652134897365,-4.500077810149727 L19.593652134897365,-6.000077810149723" style="stroke:#c0c0c0;stroke-width:0.00984251968503937;"/>
                <path d="M21.318158537924095,-4.500077810149727 L19.818158537924095,-6.000077810149723" style="stroke:#c0c0c0;stroke-width:0.00984251968503937;"/>
                <path d="M21.54266494095082,-4.500077810149727 L20.042664940950825,-6.000077810149723" style="stroke:#c0c0c0;stroke-width:0.00984251968503937;"/>
                <path d="M21.767171343977548,-4.500077810149727 L20.267171343977548,-6.000077810149723" style="stroke:#c0c0c0;stroke-width:0.00984251968503937;"/>
                <path d="M21.991677747004278,-4.500077810149727 L20.49167774700428,-6.000077810149724" style="stroke:#c0c0c0;stroke-width:0.00984251968503937;"/>
                <path d="M22.216184150031008,-4.500077810149727 L20.716184150031008,-6.000077810149724" style="stroke:#c0c0c0;stroke-width:0.00984251968503937;"/>
                <path d="M22.440690553057735,-4.500077810149727 L20.940690553057735,-6.000077810149724" style="stroke:#c0c0c0;stroke-width:0.00984251968503937;"/>
                <path d="M22.665196956084465,-4.500077810149727 L21.165196956084465,-6.000077810149724" style="stroke:#c0c0c0;stroke-width:0.00984251968503937;"/>
                <path d="M22.8897033591112,-4.500077810149727 L21.3897033591112,-6.000077810149724" style="stroke:#c0c0c0;stroke-width:0.00984251968503937;"/>
                <path d="M23.11420976213792,-4.500077810149727 L21.614209762137925,-6.000077810149724" style="stroke:#c0c0c0;stroke-width:0.00984251968503937;"/>
                <path d="M23.338716165164648,-4.500077810149727 L21.83871616516465,-6.000077810149724" style="stroke:#c0c0c0;stroke-width:0.00984251968503937;"/>
                <path d="M23.563222568191385,-4.500077810149727 L22.06322256819138,-6.000077810149724" style="stroke:#c0c0c0;stroke-width:0.00984251968503937;"/>
                <path d="M23.78772897121811,-4.500077810149727 L22.287728971218115,-6.000077810149724" style="stroke:#c0c0c0;stroke-width:0.00984251968503937;"/>
                <path d="M23.87500000000001,-4.637313184394546 L22.512235374244835,-6.000077810149726" style="stroke:#c0c0c0;stroke-width:0.00984251968503937;"/>
                <path d="M23.875000000000014,-4.861819587421279 L22.736741777271565,-6.000077810149725" style="stroke:#c0c0c0;stroke-width:0.00984251968503937;"/>
                <path d="M23.875000000000014,-5.086325990448006 L22.961248180298295,-6.000077810149726" style="stroke:#c0c0c0;stroke-width:0.00984251968503937;"/>
                <path d="M23.875000000000014,-5.310832393474733 L23.185754583325018,-6.000077810149725" style="stroke:#c0c0c0;stroke-width:0.00984251968503937;"/>
                <path d="M23.875000000000014,-5.535338796501465 L23.410260986351755,-6.000077810149726" style="stroke:#c0c0c0;stroke-width:0.00984251968503937;"/>
                <path d="M23.875000000000014,-5.759845199528195 L23.634767389378485,-6.000077810149725" style="stroke:#c0c0c0;stroke-width:0.00984251968503937;"/>
                <path d="M23.875000000000014,-5.984351602554918 L23.859273792405205,-6.000077810149726" style="stroke:#c0c0c0;stroke-width:0.00984251968503937;"/>
            </g>
        </g>
        <!-- Block Reference: clear tape / entities: 5 -->
        <g>
            <!-- Line -->
            <line x1="-9.875000000000002" y1="-5.999999999999993" x2="-4.875000000000002" y2="-5.999999999999993" style="stroke:#c0c0c0;stroke-width:0.00984251968503937;"/>
            <!-- Line -->
            <line x1="-4.875000000000002" y1="-5.999999999999993" x2="-4.875000000000002" y2="-4.499999999999993" style="stroke:#c0c0c0;stroke-width:0.00984251968503937;"/>
            <!-- Line -->
            <line x1="-4.875000000000002" y1="-4.499999999999993" x2="-9.875000000000002" y2="-4.499999999999993" style="stroke:#c0c0c0;stroke-width:0.00984251968503937;"/>
            <!-- Line -->
            <line x1="-9.875000000000002" y1="-4.499999999999993" x2="-9.875000000000002" y2="-5.999999999999993" style="stroke:#c0c0c0;stroke-width:0.00984251968503937;"/>
            <!-- Hatch -->
            <g>
                <path d="M-4.877467984866349,-5.999999999999993 L-4.875000000000002,-5.997532015133645" style="stroke:#c0c0c0;stroke-width:0.00984251968503937;"/>
                <path d="M-5.101974387893078,-5.999999999999993 L-4.875000000000002,-5.773025612106917" style="stroke:#c0c0c0;stroke-width:0.00984251968503937;"/>
                <path d="M-5.326480790919808,-5.999999999999993 L-4.875000000000002,-5.548519209080188" style="stroke:#c0c0c0;stroke-width:0.00984251968503937;"/>
                <path d="M-5.550987193946537,-5.999999999999993 L-4.875000000000002,-5.324012806053457" style="stroke:#c0c0c0;stroke-width:0.00984251968503937;"/>
                <path d="M-5.775493596973266,-5.999999999999993 L-4.875000000000001,-5.099506403026728" style="stroke:#c0c0c0;stroke-width:0.00984251968503937;"/>
                <path d="M-5.999999999999995,-5.999999999999993 L-4.875000000000003,-4.875000000000001" style="stroke:#c0c0c0;stroke-width:0.00984251968503937;"/>
                <path d="M-6.224506403026724,-5.999999999999993 L-4.875000000000002,-4.650493596973271" style="stroke:#c0c0c0;stroke-width:0.00984251968503937;"/>
                <path d="M-6.44901280605345,-5.999999999999993 L-4.94901280605345,-4.499999999999993" style="stroke:#c0c0c0;stroke-width:0.00984251968503937;"/>
                <path d="M-6.6735192090801805,-5.999999999999993 L-5.1735192090801805,-4.499999999999993" style="stroke:#c0c0c0;stroke-width:0.00984251968503937;"/>
                <path d="M-6.89802561210691,-5.999999999999993 L-5.39802561210691,-4.499999999999993" style="stroke:#c0c0c0;stroke-width:0.00984251968503937;"/>
                <path d="M-7.122532015133638,-5.999999999999993 L-5.622532015133638,-4.499999999999993" style="stroke:#c0c0c0;stroke-width:0.00984251968503937;"/>
                <path d="M-7.347038418160368,-5.999999999999993 L-5.847038418160367,-4.499999999999994" style="stroke:#c0c0c0;stroke-width:0.00984251968503937;"/>
                <path d="M-7.5715448211870955,-5.999999999999993 L-6.0715448211870955,-4.499999999999993" style="stroke:#c0c0c0;stroke-width:0.00984251968503937;"/>
                <path d="M-7.7960512242138265,-5.999999999999993 L-6.2960512242138265,-4.499999999999993" style="stroke:#c0c0c0;stroke-width:0.00984251968503937;"/>
                <path d="M-8.020557627240555,-5.999999999999993 L-6.520557627240554,-4.499999999999993" style="stroke:#c0c0c0;stroke-width:0.00984251968503937;"/>
                <path d="M-8.245064030267283,-5.999999999999993 L-6.745064030267282,-4.499999999999993" style="stroke:#c0c0c0;stroke-width:0.00984251968503937;"/>
                <path d="M-8.469570433294013,-5.999999999999993 L-6.969570433294013,-4.499999999999993" style="stroke:#c0c0c0;stroke-width:0.00984251968503937;"/>
                <path d="M-8.694076836320741,-5.999999999999993 L-7.194076836320741,-4.499999999999993" style="stroke:#c0c0c0;stroke-width:0.00984251968503937;"/>
                <path d="M-8.918583239347468,-5.999999999999993 L-7.418583239347468,-4.499999999999993" style="stroke:#c0c0c0;stroke-width:0.00984251968503937;"/>
                <path d="M-9.143089642374198,-5.999999999999993 L-7.643089642374197,-4.499999999999993" style="stroke:#c0c0c0;stroke-width:0.00984251968503937;"/>
                <path d="M-9.367596045400928,-5.999999999999993 L-7.867596045400926,-4.499999999999993" style="stroke:#c0c0c0;stroke-width:0.00984251968503937;"/>
                <path d="M-9.592102448427658,-5.999999999999993 L-8.092102448427658,-4.499999999999993" style="stroke:#c0c0c0;stroke-width:0.00984251968503937;"/>
                <path d="M-9.816608851454381,-5.999999999999992 L-8.316608851454381,-4.499999999999993" style="stroke:#c0c0c0;stroke-width:0.00984251968503937;"/>
                <path d="M-9.875000000000002,-5.833884745518882 L-8.541115254481111,-4.499999999999993" style="stroke:#c0c0c0;stroke-width:0.00984251968503937;"/>
                <path d="M-9.875000000000002,-5.609378342492155 L-8.765621657507841,-4.499999999999993" style="stroke:#c0c0c0;stroke-width:0.00984251968503937;"/>
                <path d="M-9.875000000000004,-5.384871939465427 L-8.990128060534571,-4.499999999999993" style="stroke:#c0c0c0;stroke-width:0.00984251968503937;"/>
                <path d="M-9.875000000000002,-5.160365536438696 L-9.214634463561302,-4.499999999999994" style="stroke:#c0c0c0;stroke-width:0.00984251968503937;"/>
                <path d="M-9.875000000000002,-4.9358591334119675 L-9.439140866588028,-4.499999999999993" style="stroke:#c0c0c0;stroke-width:0.00984251968503937;"/>
                <path d="M-9.875000000000004,-4.71135273038524 L-9.663647269614756,-4.499999999999993" style="stroke:#c0c0c0;stroke-width:0.00984251968503937;"/>
            </g>
        </g>
        <!-- Block Reference: bridle half / entities: 5 -->
        <g/>
        <!-- Block Reference: bridle half / entities: 5 -->
        <g/>
        <!-- Block Reference: Tail bridle half / entities: 5 -->
        <g/>
        <!-- Block Reference: Tail bridle half / entities: 5 -->
        <g/>
        <!-- Block Reference: Tail / entities: 17 -->
        <g/>
    </g>
</svg>
